<svg width="17" height="17" viewBox="0 0 17 17" fill="none" xmlns="http://www.w3.org/2000/svg">
<path d="M6.19372 9.37889C6.19372 9.16593 6.02099 8.99341 5.80786 8.99341H4.46134C4.24845 8.99341 4.07568 9.16593 4.07568 9.37889V10.7252C4.07568 10.9385 4.24845 11.1111 4.46134 11.1111H5.80786C6.02099 11.1111 6.19372 10.9385 6.19372 10.7252V9.37889Z" fill="#72B62B"/>
<path d="M9.55924 9.37889C9.55924 9.16593 9.38647 8.99341 9.17376 8.99341H7.82706C7.61417 8.99341 7.44141 9.16593 7.44141 9.37889V10.7252C7.44141 10.9385 7.61417 11.1111 7.82706 11.1111H9.17376C9.38647 11.1111 9.55924 10.9385 9.55924 10.7252V9.37889Z" fill="#72B62B"/>
<path d="M12.9247 9.37889C12.9247 9.16593 12.7519 8.99341 12.539 8.99341H11.1925C10.9794 8.99341 10.8066 9.16593 10.8066 9.37889V10.7252C10.8066 10.9385 10.9794 11.1111 11.1925 11.1111H12.539C12.7519 11.1111 12.9247 10.9385 12.9247 10.7252V9.37889Z" fill="#72B62B"/>
<path d="M6.19372 12.7441C6.19372 12.5308 6.02099 12.3584 5.80786 12.3584H4.46134C4.24845 12.3584 4.07568 12.5308 4.07568 12.7441V14.0902C4.07568 14.3033 4.24845 14.4758 4.46134 14.4758H5.80786C6.02099 14.4758 6.19372 14.3032 6.19372 14.0902V12.7441Z" fill="#72B62B"/>
<path d="M9.55924 12.7441C9.55924 12.5308 9.38647 12.3584 9.17376 12.3584H7.82706C7.61417 12.3584 7.44141 12.5308 7.44141 12.7441V14.0902C7.44141 14.3033 7.61417 14.4758 7.82706 14.4758H9.17376C9.38647 14.4758 9.55924 14.3032 9.55924 14.0902V12.7441Z" fill="#72B62B"/>
<path d="M12.9247 12.7441C12.9247 12.5308 12.7519 12.3584 12.5392 12.3584H11.1925C10.9794 12.3584 10.8066 12.5308 10.8066 12.7441V14.0902C10.8066 14.3033 10.9794 14.4758 11.1925 14.4758H12.5392C12.7519 14.4758 12.9247 14.3032 12.9247 14.0902V12.7441Z" fill="#72B62B"/>
<path d="M15.332 1.89288V3.94931C15.332 4.8788 14.5779 5.62782 13.6486 5.62782H12.5867C11.6573 5.62782 10.8932 4.8788 10.8932 3.94931V1.8855H6.10685V3.94931C6.10685 4.8788 5.34285 5.62782 4.41358 5.62782H3.35144C2.42213 5.62782 1.66813 4.8788 1.66813 3.94931V1.89288C0.855902 1.91736 0.188477 2.58946 0.188477 3.41555V15.4672C0.188477 16.3088 0.870633 17 1.71225 17H15.2878C16.1282 17 16.8116 16.3074 16.8116 15.4672V3.41555C16.8116 2.58946 16.1442 1.91736 15.332 1.89288ZM14.8387 14.7167C14.8387 15.0804 14.5438 15.3755 14.18 15.3755H2.79107C2.42722 15.3755 2.13232 15.0804 2.13232 14.7167V8.49161C2.13232 8.12775 2.42718 7.83268 2.79107 7.83268H14.18C14.5438 7.83268 14.8387 8.12775 14.8387 8.49161L14.8387 14.7167Z" fill="#72B62B"/>
<path d="M3.34784 4.52536H4.39824C4.71706 4.52536 4.97557 4.26724 4.97557 3.94841V0.577158C4.97557 0.258299 4.71706 0 4.39824 0H3.34784C3.02898 0 2.77051 0.258299 2.77051 0.577158V3.94841C2.77051 4.26724 3.02898 4.52536 3.34784 4.52536Z" fill="#72B62B"/>
<path d="M12.5729 4.52536H13.6233C13.9419 4.52536 14.2004 4.26724 14.2004 3.94841V0.577158C14.2005 0.258299 13.942 0 13.6233 0H12.5729C12.2541 0 11.9956 0.258299 11.9956 0.577158V3.94841C11.9956 4.26724 12.2541 4.52536 12.5729 4.52536Z" fill="#72B62B"/>
</svg>
