<svg width="133" height="106" viewBox="0 0 133 106" fill="none" xmlns="http://www.w3.org/2000/svg">
<path d="M15.815 105.343H117.687C126.132 105.343 133 98.4752 133 90.0305V27.9298C133 19.485 126.132 12.6172 117.687 12.6172H96.9003L95.0808 6.47916C94.3382 3.12048 91.2678 0.655273 87.6566 0.655273H45.843C42.3338 0.655273 39.2281 3.10777 38.4061 6.50974L38.3577 6.71901L36.699 12.6168H15.8126C7.36787 12.6168 0.5 19.4846 0.5 27.9294V90.0297C0.50238 98.4752 7.37263 105.343 15.815 105.343ZM117.687 17.7215C123.317 17.7215 127.896 22.3001 127.896 27.9298V90.0301C127.896 95.6602 123.317 100.238 117.687 100.238H15.815C10.1849 100.238 5.60672 95.6598 5.60672 90.0301V27.9298C5.60672 22.2997 10.1853 17.7215 15.815 17.7215H40.5651L43.3595 7.75544C43.6173 6.5967 44.6612 5.75723 45.8454 5.75723H87.6594C88.8614 5.75723 89.8823 6.57883 90.1452 7.75822L93.0953 17.7215H117.687ZM66.7472 89.9153C84.6092 89.9153 99.1412 75.3862 99.1412 57.5265C99.1412 39.6645 84.6096 25.1354 66.7472 25.1354C48.89 25.1354 34.3608 39.6669 34.3608 57.5265C34.3612 75.3838 48.8904 89.9153 66.7472 89.9153ZM66.7472 30.2369C81.7946 30.2369 94.0368 42.4768 94.0368 57.5242C94.0368 72.5715 81.7942 84.8086 66.7472 84.8086C51.7026 84.8086 39.4652 72.5687 39.4652 57.5242C39.4656 42.4768 51.7054 30.2369 66.7472 30.2369ZM19.1098 27.1947C21.7128 27.1947 23.8186 29.3053 23.8186 31.9036C23.8186 34.5042 21.7132 36.612 19.1098 36.612C16.5091 36.612 14.4037 34.5038 14.4037 31.9036C14.4061 29.3053 16.5119 27.1947 19.1098 27.1947Z" fill="#F7F7F7"/>
</svg>
